<svg width="32" height="32" viewBox="0 0 32 32" fill="none" xmlns="http://www.w3.org/2000/svg">
<path d="M24.4587 11.6133C23.5161 11.6133 22.7534 12.376 22.7534 13.3173V19.3573C22.7534 20.3027 23.5161 21.064 24.4587 21.064C25.4014 21.064 26.1641 20.3027 26.1641 19.3573V13.3173C26.1641 12.376 25.4014 11.6133 24.4587 11.6133ZM7.54139 11.6133C6.59873 11.6133 5.83606 12.376 5.83606 13.3173V19.3573C5.83606 20.3027 6.59873 21.064 7.54139 21.064C8.48406 21.064 9.24673 20.3027 9.24673 19.3573V13.3173C9.24806 12.376 8.48406 11.6133 7.54139 11.6133ZM19.3934 6.53468L20.4174 4.68401C20.5454 4.46134 20.4614 4.18134 20.2401 4.05734C20.0161 3.93201 19.7347 4.01334 19.6121 4.23734L18.5601 6.13068C17.7761 5.81734 16.9121 5.64001 16.0001 5.64001C15.0881 5.64001 14.2241 5.81601 13.4401 6.12934L12.3881 4.23868C12.2681 4.01468 11.9867 3.93334 11.7601 4.05868C11.5387 4.18268 11.4574 4.46268 11.5827 4.68534L12.6067 6.53601C10.7627 7.58668 9.53073 9.46534 9.53073 11.6133C9.53073 11.628 9.53073 11.6413 9.53339 11.6587C9.53073 11.6667 9.53073 11.676 9.53073 11.684V11.6853H22.4681V11.684C22.4681 11.676 22.4681 11.6667 22.4681 11.6587C22.4681 11.6413 22.4681 11.628 22.4681 11.6133C22.4694 9.46534 21.2374 7.58801 19.3934 6.53468ZM13.0134 9.15868C12.7614 9.15868 12.5547 8.95068 12.5547 8.69734C12.5547 8.44401 12.7601 8.23601 13.0134 8.23601C13.2681 8.23601 13.4774 8.44268 13.4774 8.69734C13.4761 8.95068 13.2681 9.15868 13.0134 9.15868ZM18.9867 9.15868C18.7321 9.15868 18.5254 8.95068 18.5254 8.69734C18.5254 8.44401 18.7307 8.23601 18.9867 8.23601C19.2387 8.23601 19.4454 8.44268 19.4454 8.69734C19.4454 8.95068 19.2401 9.15868 18.9867 9.15868ZM9.53073 21.4933C9.53073 22.3547 10.2307 23.0547 11.0961 23.0547H11.8774V26.256C11.8774 27.1987 12.6427 27.96 13.5827 27.96C14.5227 27.96 15.2881 27.1987 15.2881 26.256V23.0547H16.7094V26.256C16.7094 27.1987 17.4721 27.96 18.4121 27.96C19.3574 27.96 20.1201 27.1987 20.1201 26.256V23.0547H20.9014C21.7654 23.0547 22.4667 22.356 22.4667 21.4933V12.0373H9.53073V21.4933Z" fill="white"/>
</svg>
