<svg width="32" height="32" viewBox="0 0 32 32" fill="none" xmlns="http://www.w3.org/2000/svg">
<path d="M26.22 22.4147C25.8373 23.3 25.384 24.1147 24.8587 24.864C24.1427 25.8867 23.5547 26.5933 23.104 26.9867C22.404 27.6293 21.652 27.96 20.848 27.9787C20.272 27.9787 19.576 27.8147 18.7653 27.4813C17.952 27.1493 17.2053 26.9867 16.5213 26.9867C15.8053 26.9867 15.0373 27.1493 14.2147 27.4813C13.3933 27.8147 12.7293 27.9893 12.2213 28.0053C11.452 28.0387 10.6827 27.7 9.91598 26.9867C9.42665 26.56 8.81465 25.8267 8.07998 24.7893C7.29332 23.684 6.64665 22.3973 6.13998 20.9347C5.59732 19.352 5.32532 17.8213 5.32532 16.3387C5.32532 14.6413 5.69198 13.176 6.42665 11.9493C7.00532 10.9627 7.77332 10.1853 8.73332 9.61468C9.69465 9.04268 10.7347 8.75068 11.8533 8.73201C12.4667 8.73201 13.2707 8.92134 14.2667 9.29468C15.2627 9.66801 15.9027 9.85734 16.1813 9.85734C16.392 9.85734 17.1 9.63468 18.3053 9.19334C19.4427 8.78401 20.4027 8.61468 21.1893 8.68134C23.3227 8.85334 24.924 9.69334 25.9893 11.208C24.0827 12.364 23.14 13.9813 23.1587 16.0573C23.1747 17.6747 23.7627 19.02 24.9147 20.088C25.4373 20.584 26.02 20.9667 26.668 21.2387C26.5267 21.648 26.3773 22.0387 26.22 22.4147ZM21.3307 3.17334C21.3307 4.44001 20.8667 5.62401 19.9453 6.71868C18.8307 8.02001 17.484 8.77334 16.024 8.65468C16.0053 8.50268 15.996 8.34268 15.996 8.17468C15.996 6.95734 16.524 5.65601 17.4667 4.59068C17.936 4.05201 18.5333 3.60268 19.2573 3.24534C19.98 2.89334 20.6627 2.69868 21.3053 2.66534C21.3227 2.83601 21.3307 3.00534 21.3307 3.17334Z" fill="white"/>
</svg>
